<?xml version="1.0" encoding="UTF-8"?>
<svg id="Layer_1" xmlns="http://www.w3.org/2000/svg" version="1.1" viewBox="0 0 361.11 142.32">
  <g>
    <path fill="none" stroke="#000" stroke-miterlimit="10" stroke-width="7" d="M107.55,70.38c0,17.35-14.06,31.41-31.41,31.41-2.82,0-5.55-.37-8.15-1.07.87-2.87,1.33-5.91,1.33-9.06,0-8.21-3.15-15.68-8.31-21.27,5.16-5.59,8.31-13.08,8.31-21.29,0-3.15-.46-6.19-1.33-9.06,2.6-.7,5.33-1.07,8.15-1.07,17.35,0,31.41,14.07,31.41,31.41Z"/>
    <path fill="none" stroke="#000" stroke-miterlimit="10" stroke-width="7" d="M67.99,100.72c-3.88,12.93-15.88,22.35-30.08,22.35-17.34,0-31.41-14.06-31.41-31.41,0-8.21,3.15-15.68,8.31-21.27,5.75,6.22,13.97,10.12,23.1,10.12,2.82,0,5.55-.37,8.15-1.07,3.11,10.37,11.44,18.47,21.93,21.28Z"/>
    <path fill="none" stroke="#000" stroke-miterlimit="10" stroke-width="7" d="M61.01,70.39c5.16,5.59,8.31,13.06,8.31,21.27,0,3.15-.46,6.19-1.33,9.06-10.49-2.81-18.82-10.91-21.93-21.28-2.6.7-5.33,1.07-8.15,1.07-9.13,0-17.35-3.9-23.1-10.12,5.74-6.23,13.97-10.13,23.1-10.13,2.82,0,5.55.37,8.14,1.07,3.12-10.36,11.44-18.48,21.94-21.29.87,2.87,1.33,5.91,1.33,9.06,0,8.21-3.15,15.7-8.31,21.29Z"/>
    <path fill="none" stroke="#000" stroke-miterlimit="10" stroke-width="7" d="M67.99,40.04c-10.5,2.81-18.82,10.93-21.94,21.29-2.59-.7-5.32-1.07-8.14-1.07-9.13,0-17.36,3.9-23.1,10.13-5.15-5.59-8.31-13.08-8.31-21.29,0-17.35,14.07-31.41,31.41-31.41,14.2,0,26.2,9.42,30.08,22.35Z"/>
  </g>
  <g>
    <path fill="#000" d="M162.44,38.14v9.02h-33.87v-9.02h33.87ZM138.42,22.56h10.55v64.1c0,2.93.6,5.07,1.79,6.42,1.19,1.35,3.17,2.02,5.95,2.02.66,0,1.51-.08,2.55-.23,1.03-.16,1.98-.31,2.84-.47l2.17,8.91c-1.09.39-2.33.68-3.72.88-1.39.2-2.76.29-4.13.29-5.66,0-10.08-1.49-13.24-4.48s-4.75-7.16-4.75-12.51V22.56Z"/>
    <path fill="#000" d="M169.25,27.42c-1.99,0-3.71-.68-5.16-2.05-1.45-1.37-2.17-3.01-2.17-4.92s.72-3.6,2.17-4.95c1.44-1.35,3.16-2.02,5.16-2.02s3.77.67,5.21,2.02c1.44,1.35,2.17,3,2.17,4.95s-.72,3.55-2.17,4.92c-1.45,1.37-3.18,2.05-5.21,2.05ZM163.92,103.65V38.14h10.55v65.51h-10.55Z"/>
    <path fill="#000" d="M235.94,128.14h-10.55v-34.63h-.82c-.7,1.21-1.75,2.72-3.13,4.54-1.39,1.82-3.34,3.44-5.86,4.86s-5.87,2.14-10.05,2.14c-5.43,0-10.24-1.39-14.41-4.16-4.18-2.77-7.44-6.7-9.79-11.78-2.34-5.08-3.52-11.09-3.52-18.05s1.18-12.9,3.54-17.96c2.36-5.06,5.63-8.96,9.81-11.69,4.18-2.73,8.98-4.1,14.41-4.1,4.26,0,7.64.7,10.14,2.11,2.5,1.41,4.42,3,5.77,4.78,1.35,1.78,2.37,3.25,3.08,4.42h1.17v-10.49h10.2v90ZM207.11,95.62c3.98,0,7.34-1.04,10.08-3.13,2.73-2.09,4.8-4.99,6.21-8.7,1.41-3.71,2.11-7.99,2.11-12.83s-.69-9.07-2.08-12.69c-1.39-3.61-3.45-6.44-6.18-8.47-2.74-2.03-6.11-3.05-10.14-3.05s-7.59,1.08-10.34,3.22c-2.75,2.15-4.82,5.05-6.18,8.7-1.37,3.65-2.05,7.74-2.05,12.28s.69,8.72,2.08,12.45c1.39,3.73,3.47,6.7,6.24,8.91,2.77,2.21,6.19,3.31,10.25,3.31Z"/>
    <path fill="#000" d="M264.66,104.47c-4.42,0-8.29-.91-11.63-2.72s-5.94-4.56-7.79-8.23c-1.86-3.67-2.78-8.26-2.78-13.77v-41.6h10.55v40.72c0,5.04,1.33,8.99,3.98,11.84,2.66,2.85,6.27,4.28,10.84,4.28,3.12,0,5.93-.68,8.41-2.05,2.48-1.37,4.44-3.37,5.89-6.01,1.44-2.64,2.17-5.81,2.17-9.52v-39.26h10.61v65.51h-10.2v-15.88h1.41c-2.03,6.13-4.91,10.45-8.64,12.95-3.73,2.5-8,3.75-12.8,3.75Z"/>
    <path fill="#000" d="M328.07,105.06c-5.94,0-11.14-1.41-15.62-4.22-4.47-2.81-7.96-6.76-10.46-11.84-2.5-5.08-3.75-10.98-3.75-17.7s1.25-12.8,3.75-17.9c2.5-5.1,5.99-9.05,10.46-11.87,4.47-2.81,9.68-4.22,15.62-4.22s11.21,1.41,15.7,4.22c4.49,2.81,7.99,6.77,10.49,11.87,2.5,5.1,3.75,11.07,3.75,17.9s-1.25,12.62-3.75,17.7c-2.5,5.08-6,9.02-10.49,11.84-4.49,2.81-9.73,4.22-15.7,4.22ZM328.07,95.62c4.41,0,8.05-1.13,10.9-3.4,2.85-2.26,4.96-5.24,6.33-8.94,1.37-3.69,2.05-7.68,2.05-11.98s-.68-8.37-2.05-12.1c-1.37-3.73-3.48-6.74-6.33-9.02-2.85-2.29-6.49-3.43-10.9-3.43s-7.97,1.14-10.78,3.43-4.9,5.28-6.27,8.99c-1.37,3.71-2.05,7.75-2.05,12.13s.68,8.29,2.05,11.98c1.37,3.69,3.46,6.67,6.27,8.94,2.81,2.27,6.41,3.4,10.78,3.4Z"/>
  </g>
</svg>
